<svg width="120" height="48" viewBox="0 0 120 48" fill="none" xmlns="http://www.w3.org/2000/svg">
<g clip-path="url(#clip0_5919_1390)">
<path d="M29.3654 21.1129L20.8867 0H23.8676L31.0039 17.7668H31.1421L38.081 0H41.0323L32.5141 21.1129H29.3654Z" fill="#4E5871"/>
<path d="M46.3923 0V21.1129H43.4805V0H46.3923Z" fill="#4E5871"/>
<path d="M57.3284 21.1129L48.8398 0H51.8207L58.9571 17.7668H59.0952L66.044 0H68.9953L60.4771 21.1129H57.3284Z" fill="#4E5871"/>
<path d="M74.3532 0V21.1129H71.4414V0H74.3532Z" fill="#4E5871"/>
<path d="M78.4414 0H86.0811C92.7141 0 96.909 3.95805 96.909 10.5614C96.909 17.1647 92.7239 21.1228 86.0811 21.1228H78.4414V0ZM85.9133 18.7341C91.0756 18.7341 93.8887 15.6841 93.8887 10.5515C93.8887 5.41888 91.0756 2.36891 85.9133 2.36891H81.3532V18.7242H85.9133V18.7341Z" fill="#4E5871"/>
<path d="M18.9432 35.9386C18.7162 35.8202 18.5484 35.7215 18.4497 35.6326C18.351 35.5537 18.3017 35.4253 18.3017 35.2576C18.3017 35.0404 18.4892 34.764 18.8544 34.4284C19.3973 33.9941 19.8118 33.4315 20.108 32.7208C20.4041 32.02 20.5521 31.3094 20.5521 30.5987C20.5521 29.1774 20.0191 27.983 18.9432 27.0059C17.8674 26.0287 16.0413 25.5352 13.4553 25.5352C12.8532 25.5352 12.0635 25.5746 11.0864 25.6437C10.1092 25.7128 9.45774 25.7523 9.13201 25.7523C8.61875 25.7523 7.59222 25.7128 6.04256 25.6437C4.4929 25.5746 3.23936 25.5352 2.27205 25.5352C1.72918 25.5352 1.22578 25.6931 0.761873 25.9991C0.297962 26.3051 0.061071 26.7295 0.061071 27.2724C0.061071 27.8152 0.327573 28.21 0.870448 28.4765C1.40345 28.7431 1.81801 29.0688 2.10425 29.434C2.3905 29.7992 2.53855 30.6283 2.53855 31.9312L2.19309 40.8245C2.15361 42.0089 2.02529 42.8775 1.81801 43.4204C1.61073 43.9633 1.36397 44.3285 1.09747 44.516C0.830966 44.7036 0.574334 44.8812 0.347314 45.049C0.120294 45.2168 0.0117188 45.5129 0.0117188 45.9275C0.0117188 46.4112 0.218998 46.806 0.633557 47.1021C1.04812 47.4081 1.5219 47.5561 2.0549 47.5561C2.42011 47.5561 3.32819 47.5265 4.79889 47.4772C6.26958 47.4278 7.47378 47.3982 8.41147 47.3982C9.24059 47.3982 10.3066 47.4278 11.6095 47.4772C12.9124 47.5265 13.7514 47.5561 14.1561 47.5561C16.0709 47.5561 17.6601 47.2107 18.9038 46.5296C20.1474 45.8485 21.0456 44.9898 21.5984 43.9435C22.1511 42.9071 22.4275 41.8214 22.4275 40.6863C22.4275 39.5512 22.0524 38.5345 21.3023 37.6857C20.5521 36.8467 19.7724 36.2643 18.963 35.9584L18.9432 35.9386ZM9.8723 30.5691C9.8723 29.9078 9.93152 29.434 10.05 29.1576C10.1684 28.8812 10.4547 28.7431 10.889 28.7431C11.4022 28.7431 11.8168 28.901 12.1425 29.207C12.4682 29.5129 12.6952 29.8979 12.8334 30.3618C12.9716 30.8257 13.0407 31.3291 13.0407 31.872C13.0407 32.8294 12.8729 33.5598 12.5472 34.083C12.2215 34.6061 11.6194 34.8627 10.7508 34.8627C10.3461 34.8627 10.0993 34.7443 10.0006 34.4975C9.90191 34.2508 9.85256 33.777 9.85256 33.0762V30.579L9.8723 30.5691ZM11.4121 44.2693C11.037 44.2693 10.7508 44.2002 10.5435 44.0719C10.3362 43.9435 10.1783 43.6178 10.05 43.0848C9.93152 42.5617 9.8723 41.7326 9.8723 40.5975V39.0675C9.89204 38.6925 9.99074 38.4161 10.1585 38.2187C10.3263 38.0213 10.6323 37.9226 11.0765 37.9226C12.8828 37.9226 13.7909 39.107 13.7909 41.4661C13.7909 43.3316 13.0012 44.2594 11.4121 44.2594V44.2693Z" fill="#F03B50"/>
<path d="M46.6977 36.8078C46.6977 35.6825 46.4707 34.4685 46.0068 33.1557C45.5429 31.8429 44.8421 30.5993 43.8945 29.4049C42.947 28.2106 41.7132 27.2334 40.1931 26.4635C38.6731 25.6936 36.9062 25.2988 34.8828 25.2988C33.2048 25.2988 31.6453 25.5653 30.1845 26.1082C28.7335 26.6412 27.4701 27.4111 26.3843 28.4179C25.3085 29.4148 24.4596 30.619 23.8476 32.0107C23.2357 33.4025 22.9297 34.9028 22.9297 36.5018C22.9297 38.6437 23.443 40.5783 24.4596 42.3056C25.4763 44.0428 26.8779 45.3951 28.6447 46.3624C30.4214 47.3395 32.3658 47.8232 34.4979 47.8232C36.0771 47.8232 37.5972 47.5567 39.0679 47.0237C40.5386 46.4907 41.8513 45.7405 42.9963 44.7732C44.1413 43.8059 45.0395 42.6412 45.7008 41.2791C46.3621 39.917 46.6879 38.4265 46.6879 36.8078H46.6977ZM38.4855 41.5357C38.298 42.0391 37.992 42.4537 37.5774 42.7597C37.1629 43.0755 36.6595 43.2236 36.0574 43.2236C35.2875 43.2236 34.5768 42.8584 33.9254 42.1279C33.2739 41.3975 32.731 40.4697 32.277 39.3642C31.823 38.2587 31.4775 37.1335 31.2307 35.9885C30.984 34.8534 30.8655 33.9256 30.8655 33.2248C30.8655 32.3957 31.1024 31.6258 31.5663 30.9349C32.0302 30.2439 32.6718 29.8985 33.4713 29.8985C34.3202 29.8985 35.0901 30.2637 35.7514 30.9842C36.4226 31.7048 36.9753 32.6227 37.4294 33.7381C37.8834 34.8534 38.219 35.9688 38.4362 37.094C38.6533 38.2291 38.7718 39.1668 38.7718 39.917C38.7718 40.4895 38.6731 41.0323 38.4855 41.5357Z" fill="#F03B50"/>
<path d="M118.662 30.9835C117.922 29.345 116.708 28.0224 115.001 27.0255C113.293 26.0285 111.092 25.535 108.397 25.535H98.3294C97.5595 25.535 96.8784 25.6535 96.3059 25.8805C95.7334 26.1075 95.4472 26.5418 95.4472 27.1735C95.4472 27.6967 95.7236 28.1112 96.2664 28.4172C96.8093 28.7232 97.1943 28.9699 97.4015 29.1575C97.6088 29.345 97.7075 29.8978 97.7075 30.8058L97.4706 41.5153C97.4608 42.5122 97.3324 43.2229 97.1054 43.6374C96.8685 44.0619 96.5132 44.358 96.0394 44.5258C95.5656 44.6936 94.9142 44.7429 94.1739 44.4369C93.8284 44.2889 93.5224 44.1606 93.2954 43.9039C93.0783 43.6473 92.9204 43.2031 92.8315 42.5714C92.6835 41.4363 92.4663 40.5184 92.1899 39.8077C91.9136 39.097 91.5484 38.5245 91.0844 38.0902C90.6205 37.6559 90.0283 37.2907 89.288 37.0144C89.0314 36.9058 88.834 36.8071 88.6958 36.7084C88.5675 36.6195 88.4984 36.4715 88.4984 36.2741C88.4984 36.1161 88.5379 35.9977 88.607 35.9187C88.6859 35.8398 88.8142 35.7509 88.9919 35.6522C89.821 35.2475 90.4725 34.6454 90.9265 33.8262C91.3806 33.0168 91.6076 32.1285 91.6076 31.1711C91.6076 29.9076 91.2424 28.8416 90.5021 27.9829C89.7717 27.1242 88.8241 26.5023 87.6791 26.1075C86.5243 25.7127 85.33 25.5153 84.0863 25.5153C83.7408 25.5153 83.3263 25.5153 82.8229 25.535C82.3195 25.5548 81.8161 25.5745 81.3226 25.5942C80.829 25.6239 80.2467 25.6436 79.5854 25.6732C78.924 25.7028 78.4207 25.7226 78.0949 25.7226C77.8087 25.7226 77.2362 25.6831 76.3775 25.614C75.5187 25.5449 74.8179 25.5054 74.2948 25.5054C73.3571 25.5054 72.5181 25.6436 71.7778 25.9002C71.0376 26.1667 70.6625 26.6701 70.6625 27.4104C70.6625 27.8052 70.7908 28.0816 71.0474 28.2494C71.3041 28.4172 71.5804 28.585 71.8864 28.7528C72.1924 28.9206 72.449 29.2562 72.6662 29.7694C72.8833 30.2827 72.9919 31.0625 72.9919 32.1186V40.9132C72.9919 42.0582 72.8142 42.8182 72.5675 43.2525C71.462 45.2364 69.4484 44.9008 68.4712 42.8281C68.0567 41.9397 67.4546 40.6269 66.6156 38.8996C65.7865 37.1723 64.8587 35.287 63.842 33.2537C62.8253 31.2204 62.2726 30.1248 62.1739 29.957C61.3349 28.5159 60.4861 27.3611 59.6471 26.4925C58.8081 25.6239 57.7816 25.1797 56.5872 25.1797C55.2843 25.1797 54.3368 25.5153 53.7347 26.1865C53.1424 26.8577 52.8463 27.7657 52.8463 28.9008C52.8463 29.9669 52.639 31.0822 52.2344 32.2371C51.8297 33.3919 51.2967 34.7145 50.6255 36.1951L48.681 40.4098C47.8716 42.147 47.2695 43.2525 46.8846 43.7065C46.7168 43.9237 46.5391 44.0816 46.3516 44.1803C46.164 44.279 45.858 44.4073 45.4435 44.5751C45.0191 44.7429 44.7328 44.9206 44.565 45.0884C44.4071 45.2562 44.3281 45.5128 44.3281 45.8385C44.3281 46.1248 44.3775 46.3617 44.4762 46.569C44.5749 46.7762 44.792 46.9638 45.1276 47.1316C45.4632 47.2994 45.9568 47.4376 46.6279 47.5264C47.2991 47.6152 48.1282 47.6646 49.135 47.6646C52.185 47.6646 53.7149 47.0329 53.7149 45.7793C53.7149 45.4042 53.6261 45.1476 53.4484 44.9897C53.2708 44.8318 53.0141 44.7034 52.6884 44.6047C52.3528 44.506 52.1159 44.4073 51.9679 44.3086C51.8198 44.2099 51.7408 44.0322 51.7408 43.7559C51.7408 43.0748 51.9284 42.6405 52.3133 42.4628C52.6983 42.2852 53.3596 42.1963 54.2973 42.1963C56.0443 42.1963 57.2979 42.226 58.0678 42.2852C58.8278 42.3444 59.351 42.4826 59.6175 42.68C59.884 42.8774 60.0221 43.2229 60.0221 43.6967C60.0221 43.9138 59.953 44.0816 59.805 44.2C59.6569 44.3185 59.4299 44.4369 59.1141 44.5554C58.7982 44.6738 58.5613 44.8219 58.3935 44.9897C58.2356 45.1575 58.1566 45.3944 58.1566 45.7201C58.1566 46.3222 58.4231 46.7664 58.9561 47.0427C59.4891 47.3191 60.2097 47.4968 61.1178 47.5659C62.0258 47.635 63.388 47.6744 65.2041 47.6744C66.8525 47.6744 68.2541 47.5363 69.4089 47.2599C70.011 47.1118 70.4453 46.8749 70.7316 46.5591C70.85 46.4209 71.0672 46.411 71.1955 46.5295C72.0049 47.2796 73.7717 47.6646 76.5354 47.6646C78.1245 47.6646 79.3386 47.5856 80.1875 47.4277C81.0363 47.2698 81.5989 47.0427 81.8852 46.7664C82.1714 46.49 82.3195 46.1347 82.3195 45.73C82.3195 45.3746 82.2405 45.1081 82.0925 44.9305C81.9444 44.7528 81.7273 44.5751 81.441 44.4073C81.1548 44.2395 80.9475 44.0816 80.7896 43.9335C80.6415 43.7855 80.5428 43.5585 80.4836 43.2525C80.3454 42.4431 80.2763 41.4363 80.2763 40.2519C80.2763 39.63 80.3059 39.176 80.3651 38.8799C80.4244 38.5936 80.5132 38.4061 80.6316 38.3271C80.7501 38.2482 80.9376 38.2186 81.1844 38.2186C81.9641 38.2186 82.5366 38.4653 82.892 38.9588C83.2473 39.4524 83.5336 40.1433 83.7408 41.0218C84.0567 42.3345 84.3232 43.3512 84.5502 44.0717C84.7772 44.7923 85.1128 45.4536 85.557 46.0557C85.9913 46.6578 86.5934 47.1217 87.3534 47.4474C88.1134 47.7731 89.0807 47.9409 90.2553 47.9409C91.884 47.9409 93.1079 47.7041 93.9271 47.2303C94.4404 46.9342 94.776 46.5986 94.9734 46.2235C95.0326 46.3913 95.1215 46.5492 95.2498 46.6973C95.4867 46.9638 95.7926 47.1612 96.1579 47.2895C96.5231 47.4178 96.8883 47.477 97.2535 47.477C97.5595 47.477 98.3096 47.4474 99.5237 47.3981C100.738 47.3487 101.735 47.3191 102.505 47.3191C103.067 47.3191 103.571 47.3191 104.015 47.3388C104.459 47.3586 104.893 47.3685 105.308 47.3882C105.722 47.4079 106.245 47.4277 106.877 47.4376C107.509 47.4573 108.071 47.4573 108.545 47.4573C110.411 47.4573 112.059 47.1513 113.49 46.5492C114.922 45.9471 116.096 45.1279 117.004 44.0816C117.922 43.0353 118.593 41.8509 119.038 40.5282C119.482 39.2056 119.699 37.804 119.699 36.3234C119.699 34.3592 119.334 32.5529 118.593 30.9045L118.662 30.9835ZM57.14 38.4653H54.8204C54.4453 38.4653 54.169 38.4357 53.9913 38.3863C53.8136 38.337 53.7248 38.2186 53.7248 38.0211C53.7248 37.8533 53.9419 37.2118 54.3762 36.1063C54.4059 36.0174 54.4552 35.8595 54.5342 35.6325C54.6131 35.4055 54.7118 35.1488 54.85 34.8626C54.9882 34.5764 55.1264 34.3493 55.2843 34.1815C55.4423 34.0137 55.6002 33.9249 55.7581 33.9249C56.0641 33.9249 56.3109 34.073 56.5181 34.3691C56.7254 34.6652 56.9623 35.0699 57.2387 35.5634C57.9987 36.8959 58.3836 37.7349 58.3836 38.0606C58.3836 38.3173 57.9691 38.4554 57.1498 38.4554L57.14 38.4653ZM83.0499 34.2506C82.6452 34.754 81.9641 35.0107 80.9968 35.0107C80.4342 35.0107 80.1579 34.7442 80.1579 34.2111C80.1776 34.0828 80.1875 33.8459 80.1875 33.5202L80.3257 30.5986C80.3651 29.9767 80.4441 29.5424 80.5527 29.2957C80.6613 29.0489 80.9771 28.9305 81.4904 28.9305C82.9413 28.9305 83.6619 29.9471 83.6619 31.9903C83.6619 32.9971 83.4645 33.7472 83.0598 34.2605L83.0499 34.2506ZM111.427 39.7583C111.309 40.5578 111.082 41.308 110.766 41.9989C110.44 42.6899 109.976 43.2525 109.355 43.6769C108.733 44.1013 107.963 44.3185 107.025 44.3185C106.482 44.3185 106.078 44.2494 105.801 44.1013C105.535 43.9533 105.347 43.7263 105.258 43.4104C105.17 43.0946 105.12 42.6603 105.12 42.1075V30.5986C105.12 30.1643 105.15 29.8287 105.199 29.5918C105.258 29.3549 105.387 29.1772 105.584 29.0686C105.782 28.9502 106.088 28.891 106.502 28.891C107.44 28.891 108.279 29.1081 109.019 29.5326C109.759 29.957 110.381 30.796 110.865 32.0298C111.348 33.2636 111.595 35.0107 111.595 37.2512C111.595 38.1198 111.536 38.949 111.418 39.7485L111.427 39.7583Z" fill="#F03B50"/>
</g>
<defs>
<clipPath id="clip0_5919_1390">
<rect width="119.768" height="48" fill="white"/>
</clipPath>
</defs>
</svg>
